<?xml version="1.0" encoding="utf-8"?>
<!-- Generator: Adobe Illustrator 24.0.1, SVG Export Plug-In . SVG Version: 6.00 Build 0)  -->
<svg version="1.1" id="Layer_1" xmlns="http://www.w3.org/2000/svg" xmlns:xlink="http://www.w3.org/1999/xlink" x="0px" y="0px"
	 viewBox="0 0 1600 649" style="enable-background:new 0 0 1600 649;" xml:space="preserve">
<style type="text/css">
	.st0{fill:#FDFDFD;}
	.st1{fill:#E7EFF4;}
	.st2{fill:#EAF0F4;}
	.st3{fill:#B5CBDC;}
	.st4{fill:#B3CADA;}
	.st5{fill:#3A3668;}
	.st6{fill:#B4CADC;}
	.st7{fill:#92B1C6;}
	.st8{fill:#384D8D;}
	.st9{fill:#DA5158;}
	.st10{fill:#EAEBEC;}
	.st11{fill:#373466;}
	.st12{fill:#93B2C7;}
	.st13{fill:#FDC4A3;}
	.st14{fill:#E2E5E7;}
	.st15{fill:#B6D4FE;}
	.st16{fill:#F4737A;}
	.st17{fill:#F9C3A8;}
	.st18{fill:#63A8DD;}
	.st19{fill:#F2CEC2;}
	.st20{fill:#BCCFDC;}
	.st21{fill:#B7CBD8;}
	.st22{fill:#BACDDA;}
	.st23{fill:#B9CCD9;}
	.st24{fill:#B5CAD8;}
	.st25{fill:#B5C9D8;}
	.st26{fill:#B1C7D6;}
	.st27{fill:#B4C9D7;}
	.st28{fill:#FEFEFE;}
	.st29{fill:#929BF7;}
	.st30{fill:#6E82A5;}
	.st31{fill:#6B7E9C;}
	.st32{fill:#16BFC8;}
	.st33{fill:#FE7177;}
	.st34{fill:#FEC3A6;}
	.st35{fill:#F9CCBA;}
	.st36{fill:#384D8E;}
	.st37{fill:#E7E5ED;}
	.st38{fill:#E5E3F0;}
	.st39{fill:#56627B;}
	.st40{fill:#76A7FA;}
	.st41{fill:#E7EEF3;}
	.st42{fill:#8EA9BE;}
	.st43{fill:#F8CDBB;}
	.st44{fill:#F4AC8F;}
	.st45{fill:#F5F7F8;}
	.st46{fill:#4B7088;}
	.st47{fill:#EBECEA;}
	.st48{fill:#BFD1DC;}
	.st49{fill:#BBCEDB;}
	.st50{fill:#B3C9D7;}
	.st51{fill:#E4E2F0;}
	.st52{fill:#6E809F;}
	.st53{fill:#8C9BB3;}
	.st54{fill:#627697;}
	.st55{fill:#E7E7E8;}
	.st56{fill:#6F819F;}
	.st57{fill:#93A0B7;}
	.st58{fill:#F8F8F9;}
	.st59{fill:#F7F8FA;}
	.st60{fill:#FAFAFB;}
	.st61{fill:#97A4BA;}
	.st62{fill:#9CA8BD;}
	.st63{fill:#F6F5F9;}
	.st64{fill:#7284A1;}
	.st65{fill:#BEC7D4;}
	.st66{font-family:'Corbel-Bold';}
	.st67{font-size:12px;}
</style>
<g>
	<path class="st0" d="M799.8,0.1c265.1,0,530.2,0,795.3-0.1c4.1,0,4.9,0.8,4.8,4.9c-0.1,213.1-0.1,426.1,0,639.2
		c0,3.9-0.6,4.9-4.8,4.9c-530.2-0.1-1060.4-0.1-1590.6,0c-3.8,0-4.6-0.9-4.6-4.6C0.1,431.1,0.1,217.9,0,4.7C0,1,0.6,0,4.5,0
		C269.6,0.1,534.7,0.1,799.8,0.1z"/>
	<path class="st1" d="M206.1,568c1.8-2,4.1-1,6.1-1c75.1-0.1,150.3,0,225.4,0c6.4,0,6.4,0,6.4-6.6c0-1.8,0.1-3.7-0.1-5.5
		c-0.3-2.2-1.3-3.2-4-3.2c-59.8,0.2-119.6,0.2-179.4,0.3c-3.9,0-5.6-1.4-5.6-5.6c0.2-22.7,0.2-45.3-0.1-68c0-3.7,1.8-6.2,3.5-8.5
		c8.1-10.6,14.9-22,23-32.6c5-6.5,9.4-13.9,14-20.8c4.1-6.1,7.6-13,13.4-18c2.3-2,3.1-4.4,2.4-7.6c-0.5-1.9-0.2-4,0-5.9
		c0.1-1,0.9-1.8,2-1.9c1-0.1,1.5,0.5,1.7,1.4c1.1,4.1,2.4,1.5,3.2,0c5.5-9.6,13.1-17.8,18.5-27.5c2.1-3.7,6.1-6.2,8.2-10.3
		c-0.7-0.3-1-0.5-1.2-0.5c-1.7,0.5-3.7,3.2-5,0.6c-0.9-1.8,1.9-2.7,3.4-3.6c0.4-0.3,0.9-0.7,1.3-0.6c5.8,0.6,7.1-4.5,9.4-7.7
		c7.4-10.2,14.1-20.8,21.4-31c11-15.3,21.4-31,32.2-46.5c5-7.1,10.1-14.3,15.2-21.3c3.1-4.2,7-8.1,9-13.1c1-2.4,2.7-2.1,4.4-2.1
		c32.8,0,65.6,0,98.5-0.1c4.2,0,5.4,1.5,5.4,5.6c-0.1,21.8,0,43.6-0.1,65.5c0,4.2-0.5,8.2,3.9,10.9c1.3,0.8,2.1,2.5,2.9,4
		c0.3,0.6,0.2,1.8-0.3,2.3c-1,1-1.7-0.1-2.5-0.7c-1.2-1-1.4-3.8-3.4-3c-2.4,0.9-0.5,3.3-0.5,4.9c-0.2,10.2-0.1,20.3-0.1,30.4
		c1.9,0.7,2.4-1,3.3-1.7c1-0.8,2-1.4,3-0.1c1,1.3,0.2,2.5-0.8,2.9c-6,2.7-5.6,7.8-5.5,13.1c0.2,11.8-0.4,23.7,0.2,35.5
		c0.5,12.5,0.7,24.9,1.1,37.4c0.1,4.4-3.5,9.5,1.6,13.3c0.2,0.1,0.1,0.7,0,0.9c-5.1,7.2-0.3,15.1-1.7,22.5c-0.6,3.2,1.3,4.4,4.5,4.3
		c3.8-0.1,8.1,1,11.4-0.3c4.4-1.7,8.1-0.4,12.2,0.1c4.3,0.5,8.7,0.2,13,0.1c2.7-0.1,3.9,0.7,3.9,3.6c-0.3,25.8,0.5,51.6-0.5,77.4
		c-0.1,1.9,0,3.4,2.5,3c-0.9,3.3-3.5,2.1-5.1,1.4c-3.9-1.5-7.4-1.5-11,0.7c-4-2.3-8.4-1.5-12.7-1.6c-4.3-0.1-8.6,0-13,0
		c-4.3,0-4.7,2.7-4.7,6c0,3.3,0.3,6,4.6,5.9c15.6-0.2,31.2,0.3,46.9-0.3c2.2,0.2,3.8,1,3.1,3.6c-1.2,1.2-2.8,0.9-4.2,0.9
		c-124.9-0.3-249.7,0-374.6-0.2C212.8,569.5,209.2,570.4,206.1,568z"/>
	<path class="st2" d="M1294.9,554.9c-3.2,1.6-4.5,4.4-5.9,7.5c-1.7,3.7-0.7,4.6,3.1,4.6c14.7-0.1,29.5-0.1,44.2,0c2.5,0,5.3-1,7.6,1
		c-2.7,2.3-6,1.6-9.1,1.6c-49.9,0.1-99.8,0-149.8,0c-59.4,0-118.8,0-178.2,0c-3.1,0-6.3,0.4-9.4-0.8c-3.3-2.5-3.6-5.4-1.5-8.8
		c1.4,0.9,0.9,2.4,1.2,3.6c0.5,2.2,1.6,3.4,4.1,3.4c5.5-0.1,11,0,16.5,0c2.5,0,3.5-0.4,2.4-3.5c-3.1-9-6.3-17.9-7.5-27.6
		c-0.8-6.5-1.5-13.1-2.5-19.6c-0.7-4.3,1.2-5.9,5.6-5.6c5.5,0.3,11,0.3,16.5,0.3c20.5,0,41,0,61.5,0c10,0,10.5,0,11.2,9.9
		c0.9,14,7.3,24.9,17.9,33.2c6.9,5.3,15.3,7.6,24,9c12.4,2,23.9-0.5,35.1-5.7c7.9-3.7,12.8-10.1,15.9-17.6c2.4-5.7,4.6-11.6,4.6-18
		c0-7.6,0.4-15.3-3-22.3c-1.3-2.8-0.9-5.7-2.6-8.4c-6.7-10.8-16.6-16.4-28.4-20c-16-4.8-32.5-4-48.9-4c-6.4,0-6.5,0-6.5-6.4
		c0-21.8,0.1-43.6-0.1-65.5c0-4.9,1.5-6.4,6.3-6.2c14.8,0.5,29.5-0.2,43.9-4c9.8-2.5,18.5-7.6,24.8-15.4c3.5-4.4,4.7-10.6,5.9-16.3
		c3.6-17.8-2.6-41.2-22.7-48.5c-7.8-2.8-15.9-4.4-24.6-3.1c-9,1.4-17.1,4.4-23.8,10c-5.4,4.4-7.9,11.5-10.5,18
		c-1.4,3.5-2.5,7.3-2.7,11.1c-0.3,4.9-2.8,5.4-6.9,5.4c-24.2-0.1-48.3-0.1-72.5-0.1c-3,0-6,0-9,0c-4.5,0-6.3-2.2-5.9-6.8
		c0.8-9.2,3.1-18.2,4.9-27.2c3-15.1,10.1-28.3,18.7-40.6c7.3-10.5,16.8-19.2,27.4-26.7c11.4-8.1,24.1-13.2,37.1-17
		c10.9-3.2,22.1-5.3,33.6-5.8c6.8-0.3,13.6-1,20.4-0.8c21.8,0.7,43.2,3.4,63.4,12.2c9.9,4.3,18.8,9.7,27.5,16.1
		c8.8,6.4,15.6,14.2,21.5,22.9c7.2,10.5,12.7,21.8,15.3,34.6c1.6,8.1,2.3,16.3,2.6,24.4c0.4,9.7-1.4,19.4-3.4,29.1
		c-1.8,9-5.5,16.8-10.2,24.3c-10.8,17.2-24.9,30.8-44.3,38c-1.2,0.4-3.1,0.2-3.2,1.9c-0.1,1.4,1.5,2.1,2.7,2.7
		c5.5,2.5,11.1,4.6,16.3,7.4c8.5,4.4,15.9,10.5,22.7,17.3c2.4,2.4,4.9,4.7,7.4,7.1c3.7,4.3,6.3,9.3,9,14.3c0.7,1.2,1.4,2.5,2,3.8
		c0.5,1.1,0.9,2.3,1.4,3.4c3.7,8.7,5.8,17.8,6.7,27.2c0.2,0.5,0.3,1.1,0.4,1.6c2.2,13.1,1.5,26.1-0.9,39
		C1293.8,550.5,1293.9,552.7,1294.9,554.9z"/>
	<path class="st2" d="M630,494.2c1.6-3.2,0-6.5,0-9.7c0-39-0.4-77.9,0.3-116.9c0.2-12.3,1.6-24.7,4.1-36.9c2.7-13,7.2-25.4,12-37.6
		c3.9-9.7,9.3-18.7,15.3-27.4c8.4-12.1,16.7-24.3,27.6-34.3c16-14.8,33.5-27.3,54-35.3c19.3-7.5,39.2-11.2,60.1-11.1
		c19.6,0,38.3,3.8,56.3,10.8c13.4,5.2,26.1,12.2,37.6,20.9c7.6,5.8,15.1,12,21.1,19.7c2.9,3.8,7.4,6.4,10.2,10.3
		c3.1,4.4,6.3,8.7,9.5,13c9.5,12.7,16.6,27,22.2,41.7c4.2,11.1,8,22.5,9.5,34.6c0.4,3.2-0.7,5.6-0.7,8.3c-0.4,0.3-0.9,0.4-1.4,0.4
		c-7.8-0.9-9.3-0.3-11.5,4.3c-2.9,6.3-2,12.6,2.4,16.9c0.7,0.7,1.6,1.2,2.2,2c1.5,1.9,0.3,3.8,0,5.7c-1.4,8.8,1.3,13.5,9.7,16.4
		c3.4,1.2,5.8,2.7,4.2,6.8c-0.7,1-1.9,1.4-3,1.4c-3.9,0-5,2.3-5,5.7c-0.2,0.6-0.5,1.3-1,1.7c-9.5,6.5-12.8,17.4-18.8,26.5
		c-1,1.6-1.4,3.3-1.3,5.2c-2.7,5.2-4.6,5.8-9.1,2.6c-2.6-1.8-5.1-3.8-7.7-5.5c-3.7-2.5-7.3-5.2-9-9.6c-0.8-2.1-2.7-3.7-4.9-5
		c-0.3,1.5-0.4,2.9-1.3,4.2c-1.3,2-0.8,4,1,5.3c9.2,6.7,14.2,17,21.2,25.5c4.9,6,6.5,6.2,12,0.4c0.9-1,1.6-2.3,2.8-2.7
		c2.7-0.9,2.4,1.4,2.8,2.9c-0.2,5.5-1,10.9-1.7,16.3c-0.4,3.8-0.2,7.6,0.4,11.4c0.1,0.9,0,1.8-0.2,2.7c-0.6,12.4-1,24.9-2.4,37.2
		c-1.6,14.1-0.3,28.2,0,42.2c-0.2,1.3-0.5,2.6-1.6,3.5c-2,1.2-4.1,1.1-6.3,1.1c-10,0-20,0.1-30,0c-7.7-0.1-9-1.4-9-9.1
		c0-65.9,0-131.8,0-197.8c0-2.7,0.2-5.3-0.3-8c-2.4-10.7-3.9-21.6-8.2-31.8c-14.6-34.6-38.8-58.4-76.4-65.7
		c-28.5-5.5-54.5,1.9-76.9,20.5c-23.8,19.7-36.1,45.5-40,75.7c-0.2,7.6-1.4,15.2-1.4,22.8c0.1,37.5,0,75.1,0,112.6c0,2,0.2,4-0.3,6
		c-0.4,1.6-1.1,3-3,1.2c-2.9-4.3-4.5-9.8-9.9-12.1c-2.5-2.6-6.1-1-9-2.4c-1.6-1-1.7-2.4-1.4-4c1.2-3.5,2.4-7,4.1-10.3
		c2.3-5.2,2.6-10.2-0.7-15.1c-2.5-2.6-5.4-4.7-8.7-6.3c-4.9-1.1-9.9-0.2-14.9-0.5c-4.1,0.1-8.3-2.3-12.3,0.3c-3.4,2.8-2,5.8-0.4,8.8
		c1.6,3.6,5.2,5.2,8,7.5c1.1,1.2,1.2,2.6,1.5,4.1c1.3,6.6,3.6,12.4,11.2,14c1.9,0.4,2.6,1.9,2.3,3.8c-0.3,1.2-1.1,2.1-2.2,2.6
		c-6.9,3-9.4,8.7-9.8,15.8c-1.1,2.5,0.3,5.7-2,8c-2.6,0.9-3.9-1.1-5.4-2.5c-4-3.9-8.4-7.3-12.9-10.6
		C632.5,495.9,630.2,496.3,630,494.2z"/>
	<path class="st3" d="M903,353c1.7,1.8,1,4.1,1,6.2c0.1,67.1,0.1,134.1,0.1,201.2c0,7.5,0,7.5,7.7,7.5c12,0,24-0.1,36-0.1
		c2.4,2.9,2.1,6,0.3,9c-244.5,0-488.9,0-733.4,0c-8.9,0-8.9,0-8.5-8.8c127.6,0,255.2,0,382.8-0.1c2,0,4.1,1.7,6.2,0
		c1.4-0.6,2.6,0,3.7,0.7c2.8,1.6,5.4,1.1,7.8-0.8c1.3-0.2,2.6-0.3,3.9-0.3c3.9,3.3,7.2,0.5,10.7-1c14.3,0.1,28.5,0.1,42.8,0
		c0.5-0.1,1-0.3,1.5,0c8.4,4.2,16.8,3.9,25.3,0c7.2,0.5,7.2,0.5,6.8-8.6c0.4-1.1,0.8-2.1,2.3-1.8c2.4,2,1.1,5,1.9,7.4
		c0.4,0.7,0.9,1.7,1.4,0.1c0.8-2.8,0.5-5.6,0.5-8.4c-0.2-63.5-0.2-127-0.2-190.5c0-4.3,0.1-8.7,1.1-12.9c0.3-1.5,0.3-3.5,2.7-3.4
		c1.6,1.8,1.5,4.1,1.2,6.2c-0.9,5.8-0.7,11.6-0.7,17.4c0,61.8,0,123.5,0,185.3c0,2.6-0.3,5.3,0.7,7.9c1.6,2.1,3.9,1.6,6,1.6
		c13.3,0,26.6,0,39.9,0c45.7,0,91.4,0,137.2,0c2.2,0,4.3,0.2,6.4-0.5c2.2-0.1,3.2-1.4,3.4-3.5c0.1-2,0.1-4,0.1-6
		c0-64.8,0-129.6,0-194.4C901.4,359,900.6,355.7,903,353z"/>
	<path class="st4" d="M1294.9,554.9c-3.5,0.2-3.3-2-2.7-4.3c2.5-10.3,2.9-20.8,2.7-31.4c-0.1-3.8-1.5-7.5-1-11.3
		c5.8-4,13-5.2,18.8-8.9c7.5-4.7,14.9-5.7,22.9-1.5c-3-1.4-7.7-0.4-8.5-3.8c-0.9-3.8,4.1-4,6.5-5.7c5.5-3.7,10.9-7.5,16-11.7
		c-11.6,9.5-24.4,17.1-38.1,23.2c-1.2,0.5-2.4,1.4-3.7,0.3c-1.1-1.1-0.9-2.5-0.5-3.8c1-3.2,1.5-6.4,2.6-9.6c0.1-0.7-0.9-0.4-0.3-0.3
		c0.2,0,0.2,0.2,0.1,0.5c-0.7,2.7-1.8,5.4-2.1,8.2c-0.7,6-4.2,9.1-9.7,10.5c-1.6,0.4-3.1,1.2-4.2,2.6c-1.5-7.2-2.2-14.5-4.9-21.4
		c-0.8-2.1-1.5-4.3-2.2-6.5c1-9.1,7.4-12,15.2-13.5c3.6-0.7,7.1-1.9,10.1-4c1.1-0.8,2.3-1.5,3.6-0.6c-0.1,0.3-0.2,0.6-0.3,1
		c6.3-0.7,5.1,4.9,6.8,8c0.3,0.6,0.7,1.1,1.1,1.8c3.3-1.9,2.3-5.4,3.1-8c0.9-3,2.3-4.3,5.3-5c8.9-2,17.8-2.2,26.8-1.7
		c7.2,0.5,10.8,6.1,8.6,13.1c-3.1,9.7-7.8,18.6-13.2,27.2c-3,4.7-5.5,9.8-9,14.2c-1.6,2-2.6,2.8-5.2,1.2c-2.8-1.7-6.2-2.6-9.8-3.9
		c2.4,3.3,4.7,6.7,7.2,9.9c1,1.3,2.1,2.3,0.5,3.8c-6.9,6.6-12.2,14.8-21.4,19c-8.2,3.7-8,4.1-13.9-2.8c-0.7-0.9-1-2.2-2.8-2.4
		c-0.6,2.5,0.8,4.6,1.1,6.9C1302.1,552,1302.1,552,1294.9,554.9z"/>
	<path class="st5" d="M951,483c-2-4.3-1-8.8-0.6-13.2c0.4-5.3,1.2-10.6,1.8-15.9c3.1-8-1.5-12.7-7.2-16.9c-1.7-1-1.4-2.4-0.6-3.8
		c4.2-7.1,8.4-14.2,12.7-21.3c2.1-3.4,5.7-5.4,8.6-8c10.3-3,20.6-4.3,30.9-0.2c5.9,7.1,8,15.3,6.5,24.3c-3,17.4-4.2,35-4.1,52.6
		c0,1.7-0.4,3.3-1.4,4.7c-0.9,2.2-2.7,3.3-4.9,3.9c-11.4,3.2-22.7,2.9-33.9-0.5C955.7,487.7,952.5,486.3,951,483z"/>
	<path class="st6" d="M996.9,568c115.7,0,231.3,0,347,0c2.4,7.6,1.5,8.8-6.3,8.8c-110.9,0-221.8,0-332.7,0c-2,0-4,0.1-6,0.1
		c-0.6,0.3-1.1,0.2-1.5-0.3C996.2,573.8,994.8,571,996.9,568z"/>
	<path class="st7" d="M1315.8,461.9c-6.1,4.6-13.6,5.9-20.6,8c-3.3,1-5.6,2.2-5.7,6.3c0,0.9,1.2,4.7-2.6,3.8c-0.9-0.8-1-1.8-1.1-2.9
		c0.2-0.8,1.7,0.1,1.3-0.4c-2.8-3.2-1.1-5.7,0.8-8.4c3.6-5.2,7.7-10,11.3-15.2c2.7-3.9,7.2-3.6,11.4-4.4c-1,0-1.7,0.4-2.5,0.3
		c-1.7-0.3-3.8,1.8-5.1-0.2c-1.4-2.2,0.5-4.1,1.7-5.8c2.8-4.3,5.6-8.6,7.2-13c-3.1,7.7-8.7,14.5-12.4,22.5c-0.8,1.7-1.8,4-4.2,3.6
		c-2.3-0.4-1.8-2.8-2.3-4.5c-0.8-2.5-1.1-5.1-1.9-7c0.5,2.8,1.2,6.5,2.4,9.6c1.5,3.8,0.4,6.3-1.9,9c-2.9,3.4-5.6,6.9-7.6,11
		c-2.1-5.4-6.6-9.4-8.1-15.1c1.1-1.3,2.1-2.7,3.2-4c2.4-4,1.2-8.4,1.5-12.6c0.1-2.1-0.5-4.3,0.4-6.4c3.3-7.2,9.8-10.6,16.4-13.9
		c5.2-2.7,9.4-6.2,11.5-11.8c1.3-3.5,3.3-6.5,6.2-8.9c3.9-3,8-1.6,8.9,3.2c0.3,1.8,0.5,3.9-0.2,5.4c-3.2,7.5-1.2,14.6,1.3,21.8
		c1.5,4.2,2.8,8.5,3.1,13c0.4,7.3-2.2,12.6-9.3,15.3C1317.8,460.6,1316.8,461.3,1315.8,461.9z"/>
	<path class="st8" d="M690.8,566.7c-8.9,6.6-17.8,4.6-26.8,0.3c-4.6-0.8-7-4.6-10-7.6c-6.3-6.2-11.4-13.4-16.3-20.7
		c-0.7-1-1.1-2.8-2.7-2.6c-1.5,0.2-1.7,1.9-2.2,3.1c-1.6,3.8-3.3,7.6-4.9,11.5c-0.7,1.8-1.2,3.9-3.8,4c-3.2-0.2-5.7-1.9-8.4-3.3
		c-5.2,1.6-9.9,0.9-13.6-3.4c-1.1-0.7-0.8-1.5-0.2-2.5c6.3-11.4,9.3-24,12.1-36.5c0.4-1.6,0.9-3.1,2.1-4.3c1-2.4,2.4-2.3,3.9-0.5
		c1.3,1.5,1.5,3.6,3,5c12.5,7.8,22.9,18.2,33.8,28.1c0.4,1.4,0.2,2.7-0.4,3.9c-2.7,4.6-0.8,7.8,3,10.6c8.7,6.5,17.7,11.9,29.3,9.9
		c2.4-0.4,4.6-2.3,7.2-1.1C696.6,564.5,693.7,565.6,690.8,566.7z"/>
	<path class="st9" d="M996.9,568c0.4,3,0.7,5.9,1.1,8.9c0.7,2.3,0.8,4.8,1.3,7.2c1.3,6.1-0.2,7.9-6.3,9.4c-1.6,0.4-3.2,0.8-4.9,0.4
		c-2.6-1-2.8-3.5-3.2-5.7c-0.7-3.6-1.3-7.2-2.1-10.7c-1-4.3-1.6-8.7-3-12.9c-3.8-14-6.6-28.1-5.3-42.8c-0.3-4,1.4-7.3,3.2-10.8
		c2.8-5.4,6.3-10.4,8.7-16.6c-4.5-0.4-8.4,0.1-12.3,0c-6.7-0.2-13.2-1.5-19.4-4.1c-2.2-0.9-4.9-1.9-3.9-5.3c0.1-0.6,0.1-1.3,0.2-1.9
		c11.8,8.2,36.1,9.4,46.6,2.3c-1.1,13.4-1.9,26.8-3.4,40.1c-1.3,11.7-1.1,23.1,1.6,34.5C995.8,562.7,996,565.4,996.9,568z"/>
	<path class="st10" d="M1002.6,606c1.4,1.4,2.4,2.4,4.9,1.2c3.2-1.6,6.9,0.3,10.2,0.8c4.2,0.7,8.5,1.4,12.4,3.5
		c1.5,0.8,3.4,1.5,3.3,3.3c0,2.1-2.1,3-3.8,3.5c-6.1,2.1-12.4,3.7-18.8,4.4c-8.2,0.9-16.5,1.7-24.7,2.2c-10.8,0.6-21.6,1.2-32.6,0.3
		c-9.2-0.8-18.5-1.5-27.7-1.9c-7.8-0.3-15.6-2.6-23.2-4.9c-1.8-0.6-3.6-2.1-3.5-4.4c0.1-2.2,2.3-2.1,3.7-2.8
		c5.4-2.6,11.3-3.2,17.2-3.5c1.6,3.2,4.4,4.3,7.7,4.4c10.9,0.4,21.8-0.9,32.7-1.5c3.9-0.2,7.6,0.4,11.3,0.6c8.6,0.5,17.1-2,25.8-0.4
		C1001.4,611.8,1001.2,607.9,1002.6,606z"/>
	<path class="st5" d="M960.2,368c-6.6-2.9-9.1-11.6-5.6-19.4c2.7-6.1,6.9-7.3,14.3-4.3c3.5,3.8,6.7,7.7,11.4,10.2
		c17.8,9.6,19.4,18,6.6,33.5c-4.4,0.6-4.7-2.2-4.6-5.5c0.3-5.1,0.2-5.2-4.1-3.5c-1.5,0.6-2.7,0.3-3.6-0.8
		C970.9,373.3,965.2,371.1,960.2,368z"/>
	<path class="st11" d="M1002.6,606c1,6.1-0.4,7.7-6.4,6.5c-4.5-0.9-8.9-0.4-13.4,0.1c-6,0.6-12.1,1.3-18.1-1c-1.6-0.6-4,1.1-6.1,1.2
		c-10.3,0.4-20.6,0.7-30.9,0.9c-2.5,0.1-5-0.4-7.2-1.7c-2-1.2-2.6-2.5-0.6-4.2c9.2-0.6,18-2.7,26.2-7.1c5.3,0.1,10.6,1.1,15.6-1.4
		c0.8-0.4,1.8,0.4,2.6,1.1c3.3,5.5,3.3,5.3,9.8,4.2c5.4-1,10.1-3.8,15.2-5.6c3.9,1.6,8.5,0.6,12.3,2.9
		C1002.2,603.3,1001.5,604.9,1002.6,606z"/>
	<path class="st12" d="M250.9,239.2c-1.5-2.4-4.7-5.4-4.1-6.9c1.1-2.6,5-1,7.7-1.3c13-1.3,26-2.5,39.6-3.8
		c-2.1,4.9-6.6,6.9-9.1,10.7c-0.6,0.7-0.1,2.1-1.4,2.4c-9.7-2.6-19.9-3.2-26.9-5.5c3.7,1.1,10,3.1,16.2,5.6c7.6,3,7.6,3,3.5,9.8
		c-2.8,1.6-4.8,3.9-6.8,6.4c-1.8,2.2-4.3,3.2-6.3,0.5C259,251.2,253.8,246,250.9,239.2z"/>
	<path class="st13" d="M960.2,368c6.4,0.7,10.8,4.6,14.9,9c0.8,0.8,1.5,2.7,2.8,0.8c1.2-1.8,2.2-3.6,4.6-2c2.2,1.4,2.1,3.8,1.3,5.8
		c-1.2,3.4-0.4,5.4,3.1,6.4c0.3,3-0.6,6.1,1,8.9c-4.7,2.3-9.3,2.6-14-0.2c0.4-2.7,0.2-4.8-3.2-5.5c-11.6-2.4-13.5-11.2-10.7-20.4
		C960.3,369.9,960.4,369,960.2,368z"/>
	<path class="st14" d="M250.9,239.2c4.6,4.7,8,10.3,12,15.5c3,4,3.6,4.1,6.7,0c1.7-2.2,2.9-5,6.4-4.6c3.1-1.1,5.6,0.1,8.1,1.8
		c0.2,0.5,0.2,0.9-0.1,1.3c-2-0.1-4.8-0.9-1.7,2.6c1,1.1,2.5,2.6,1,4.4c-1.3,1.5-2.8,0.6-4.1-0.1c-4.7-2.5-8.2-1.7-10.9,3.2
		c-2.2,3.9-4.6,3.7-7.2-0.2c-3.9-5.8-8.2-11.2-12.3-16.7C244.8,241.1,244.8,241.1,250.9,239.2z"/>
	<path class="st15" d="M609.9,567.9c-1,0.8-2,0.5-3,0.1c-3.5,2.1-6.8,1.1-9.9-0.8c-7.5-4.6-16.1-6.9-24-10.8
		c-0.7-0.2-1.3-0.5-1.1-1.4c0.8-3.8,2.8-4.4,6.5-3c2.6,1,5.5,3.2,8.6,1c1.9-1.2,3.7-0.9,5.4,0.2c2.3,1.5,4.8,1.9,7.4,1.8
		c3,1.7,6.2,2.7,9.6,3.1C610.4,561.3,609.6,564.6,609.9,567.9z"/>
	<path class="st16" d="M973.9,396.8c4.7,0.1,9.3,0.1,14,0.2c4.7-0.1,6.9,3,8.8,6.7c-7.8-1.7-15.7-1-23.5-0.2
		c-2.4,0.3-4.9,0.8-7.3,0.4C964.7,397.4,964.7,397.4,973.9,396.8z"/>
	<path class="st17" d="M963.8,600.7c-0.6-0.2-1.5-0.7-1.8-0.4c-5.2,3.6-10.4,3-15.8,0.6c4.4-2.1,4.7-4.2,3.4-9.2
		c-1.2-4.8-0.5-9.8-1-14.7c-0.1-3-0.8-6.1-0.9-9.1c0.1-1,0.2-1.9,0.3-2.9c2.9,0.8,2.3,3.3,2.3,5.2c-0.1,5.3,1.2,10.5,1.2,15.8
		c0,2.1,0.5,4.1,3.1,4.3c2.6,0.2,5.4,1,6.8-2.4c0.5-1.3,0.6-3.1,2.6-3.1C966.5,590.1,964.4,595.4,963.8,600.7z"/>
	<path class="st17" d="M1001.6,601.4c-4.4,0-8.8,0.6-12.7-2.2c-1.7-2-1.7-4.3-1.1-6.7c11-2.1,12,1.2,11.2-9.9"/>
	<path class="st18" d="M621.9,509.7c-1.7-0.9-1.5-2.8-2.2-4.2c-0.8-1.8-2.1-2.3-3.7-0.8c0.2-3.6-2.9-5-4.9-7
		c-2.1-2.2-2.2-3.7,0.1-5.7c10.2-9.4,6.9-9.3,16.3-0.1c0.8,0.8,1.7,1.6,2.5,2.4c1.3,0.6,2.5,1.1,3.8,1.7c-1,1.3-2.4,1.4-3.8,1.6
		c-3.2-0.6-4.8-3.3-6.9-5.4c-2.1-2-3.6-3.6-6.4-0.7c-2.9,2.8-2.6,4.8,0.2,7.3c3.3,3,6.4,6.2,9.6,9.3
		C626.3,512.3,623.6,509.7,621.9,509.7z"/>
	<path class="st19" d="M608.9,557.9c-4.2,2.6-6.8,0.4-9.1-2.9c0.7-2.3,1.5-4.7,2.3-7c1.7,0.7,3.3,1.4,5,2.1c2.3,1,4.7,2.8,6.8-0.5
		c0.5-0.7,1.5,0.1,2.1,0.7c1.1,3.1-1.8,4.6-2.8,6.9C611.9,558.2,610.4,558.2,608.9,557.9z"/>
	<path class="st1" d="M374.9,266.9c1.9,0.3,4.8-0.6,4.6,2.3c-0.2,2.6-3.1,1.7-4.9,1.8c-1.8,0.1-4.2,0.3-4.2-2.1
		C370.5,265.7,373.4,267.6,374.9,266.9z"/>
	<path class="st1" d="M360.8,266c2,0.3,4.8-0.7,5,2.5c0.1,2.1-2.1,1.5-3.5,1.6c-2.2,0.1-5-0.1-5.3-2.3
		C356.6,265.5,359.3,266.2,360.8,266z"/>
	<path class="st1" d="M327.1,360c-2.3,2.1-3.1,5.3-5.9,6.7c-0.4,0.2-1.7-0.2-1.7-0.4c-0.4-2.9,2.3-4.2,3.4-6.3
		c0.5-1,1.1-2.2,2.6-1.6C326.1,358.7,326.5,359.3,327.1,360z"/>
	<path class="st1" d="M348.1,269.1c-1.7-0.3-4.4,0.7-4.6-2.2c-0.1-1.9,2-2.1,3.4-1.8c1.9,0.4,5.1,0,5.4,2.1
		C352.7,269.6,349.8,268.8,348.1,269.1z"/>
	<path class="st1" d="M390.8,271.6c-1.7-1.8-5.9,1.4-6.3-2.4c-0.2-2,3-1,4.7-1.1c1.9-0.2,3.9,0.3,4.1,2.6
		C393.4,271.8,392,271.8,390.8,271.6z"/>
	<path class="st1" d="M315.4,378.7c-1.8-0.8-1.5-2.1-1.1-3.1c0.8-2,0.8-4.9,3.7-5.2c1.3-0.2,1.2,1.4,1,2.3
		C318.1,375,317.4,377.3,315.4,378.7z"/>
	<path class="st1" d="M330.1,356c-1-0.1-2-0.4-1.7-1.1c1.3-2.6,3.2-4.6,5.9-5.7c0.9-0.3,1.8,0.5,1.5,1.4
		C334.9,353.5,331.8,354.2,330.1,356z"/>
	<path class="st20" d="M555.3,454.3c2.3,1,3.5,3.1,4.4,5.4c0.3,0.7,0.2,2.2-0.7,1.8c-2.6-0.9-3.5-3.6-4.8-5.8
		C553.9,455.2,554.2,454.4,555.3,454.3z"/>
	<path class="st21" d="M305.8,260.4c1.7,1.3,5.1-0.7,5.6,2.4c0.3,1.7-2.1,1.2-3.1,0.9c-1.7-0.5-4.3-0.2-4.8-2.6
		C303.3,259.8,304.8,260.2,305.8,260.4z"/>
	<path class="st22" d="M290.5,258c0-1.3,0.3-2,1-1.9c2.5,0.6,5.2,0.9,6.9,3.1c0.7,0.9-0.3,1.7-1.1,1.5
		C295,260,292.6,258.9,290.5,258z"/>
	<path class="st14" d="M283.9,240.1c0.4-0.7,0.7-1.5,1.1-2.2c0.5,4.7,1,9.4,1.6,14.1c0.1,0.9,0.9,2-0.4,2.6
		c-1.1,0.5-1.7-0.7-2.3-1.3c0,0,0.2-0.4,0.2-0.4C284.1,248.6,281.2,244.4,283.9,240.1z"/>
	<path class="st23" d="M548.8,322.5c-0.9-2.4-1.5-3.9-2-5.4c-0.3-1.2-1.4-2.8,0.5-3.3c1.4-0.4,1.8,1.3,2.1,2.3
		C550,317.8,550.7,319.7,548.8,322.5z"/>
	<path class="st24" d="M550.6,329.9c-1.1,1.4,0.2,4.4-2.6,4.7c-1.4,0.2-1.2-1.5-0.6-2.2c1.1-1.6-0.6-4.5,2.1-5.1
		C551,326.9,550.9,328.6,550.6,329.9z"/>
	<path class="st25" d="M552.3,450.8c-3.8-1.2-5.8-3-7-5.7c0-0.1,0.8-0.8,1-0.7C548.7,445.8,550.7,447.5,552.3,450.8z"/>
	<path class="st2" d="M1280.9,436c0,4.4,0,8.8,0,13.2c0,2.1-0.1,4.3-1.9,5.8c1.2-4.7,1-9.5,1-14.3
		C1279.9,439,1279.4,437.3,1280.9,436z"/>
	<path class="st26" d="M329.3,266.3c3.9-2,6.5-1.5,9-0.8c0.2,0,0.3,1.2,0.1,1.3C335.6,268.5,333.2,266.7,329.3,266.3z"/>
	<path class="st27" d="M317.4,264.3c0.2-0.5,0.2-0.8,0.2-0.8c2.4-0.7,4.7-1,6.8,0.8c0.2,0.2,0.1,1.2-0.1,1.2
		C321.8,266.5,319.6,265.2,317.4,264.3z"/>
	<path class="st28" d="M403,468.9c-13.7,0-27.3,0-41,0c-1.4,0-3.3,0.6-4.1-1c-0.9-1.6,0.7-2.7,1.4-3.9c3.7-6.6,9.7-11.8,12.3-19.2
		c1-2.8,3.6-1.6,5.7-1.9c1.5-0.2,3.9,0.9,4.3-1.3c0.5-2.4-2.1-1.3-3.2-2c-2.5-1.3-1.3-2.9-0.2-4.5c4.5-6.4,9.1-12.7,13.3-19.2
		c3.6-5.5,6.8-11.3,10.6-16.8c9.5-13.9,18.7-28.2,27.9-42.3c1.8-2.8,3.4-5.8,7.6-4.9c0.8,0.2,1.7,0,2-1c0.4-1.3-0.5-1.8-1.6-2
		c-2.1-0.3-2.8-1.8-1.3-3.1c4.6-4.1,6.4-10,10.1-14.7c0.6-0.8,1-2,2.1-1.7c1.2,0.3,0.9,1.6,1,2.5c0.3,5.3-0.6,10.6,0.5,15.9
		c0.4,1.8-0.8,1.9-2,2c-1.6,0.1-3.9-0.4-3.9,1.9c0,2.6,2.5,2,4.2,2.2c1.4,0.1,1.8,0.6,1.7,2.2c-1,20.5-0.2,40.9-0.4,61.4
		c0,1.8,0,3.7,0,5.5c0,8.2,0,8.1-7.4,11.1c-1.2,0.5-2.9,0.8-2.2,2.7c0.6,1.6,1.9,0.7,3,0.5c6.5-1.1,6.7-0.9,6.7,5.8
		c0,6.5-0.3,13,0.1,19.5c0.3,5.2-1.7,6.5-6.6,6.4C430,468.8,416.5,468.9,403,468.9z"/>
	<path class="st0" d="M572,554.9c0.4,0.3,0.8,0.6,1.1,0.8c5.7,2.8,11.3,5.8,17.3,7.8c0.9,0.3,1.8,1,1.7,2.2c-1.2,1.7-3,1.2-4.6,1.2
		c-14.6,0-29.2-0.1-43.9,0.1c-3.8,0.1-4.8-1.2-4.7-4.9c0.3-11.5-1-10.1,10.1-10.2c5.8,0,11.6,0.2,17.4-0.1
		C569.3,551.7,570.9,552.6,572,554.9z"/>
	<path class="st29" d="M592.1,565.7c-6.2-3.6-13.8-4.6-19-10c0-1.1,0.4-1.5,1.5-0.8c7.5,5.4,17,6.6,24.5,12c2.3,1.7,5.2,0.8,7.8,1
		c-4,6.2-7.9,1.3-11.8-0.1C594.5,566.6,593.4,566,592.1,565.7z"/>
	<path class="st30" d="M1283.8,474.1c-0.5-5.8,4.5-8.6,7.3-12.5c1.8-2.5,2.2-4.3,1.3-7.1c-1.4-4.5-2.3-9.1-3-13.8
		c4.1,4.1,3.4,10,5.9,16.1c6.1-11.3,13.2-20.5,17.7-31.3c-0.2,8.9-6.8,14.9-10.1,22.8c4,0.8,7.4-1.9,11.6-0.8c-3,3-6.8,2.3-10,3.3
		c-2.1,0.6-3.5,1.5-4.7,3.2c-3.8,5.4-7.6,10.8-11.7,16.1c-1.4,1.9-2.7,3.3-0.7,5.5c0.5,0.5,1,1.9-0.2,2.5c-0.3,0.2-1.1-0.6-1.6-0.9
		C1285.1,476.1,1284.5,475.1,1283.8,474.1z"/>
	<path class="st31" d="M903,353c0,69.9,0.1,139.9,0.1,209.8c0,5.6-0.2,5.8-5,4c-2.3-2.3-1.5-5.3-1.5-8.1c-0.1-63-0.1-125.9,0-188.9
		c0-8.5-0.6-16.9-2.3-25.3c-3.9-18.2-11.6-34.7-23.6-49c-15.4-18.3-34.8-30-58.7-32.9c-19.6-2.4-38.1,1.6-55.2,11.9
		c-2.4,1.1-4.6,2.6-6.6,4.4c-20.6,15.1-33.5,35.3-39.9,59.8c-0.8,3.2-0.9,6.7-3.3,9.3c-2.2,5.9-2.1,12-2.1,18.1
		c0,53.9,0,107.7,0,161.6c0,11.8,0,23.6-0.1,35.4c0,1.9,1.2,4.9-2.5,4.7c-3.6-0.2-2-3-2.3-4.9c1.7-4.2,2.7-8.4,2.6-12.9
		c-0.2-8.3,0.2-16.5-0.2-24.8c-0.2-3.3,0.9-7.4-3.5-9.3c-1.9-2.3-1.4-5-1.2-7.7c1.1-5.6,1.2-11.2,1.2-16.8c0.1-40,0-80.1,0.1-120.1
		c0-6.4,0-12.9,1-19.3c0.4-10.8,3.8-20.9,7.7-30.8c5.8-14.4,14-27.3,25.1-38.2c41.5-40.5,105.3-38.3,143.7,8
		C891.7,309,900,329.8,903,353z"/>
	<path class="st32" d="M699,509.4c0.1,2.2-0.5,4.6,0.9,6.6c2.3,2.6,2.2,5.9,2.4,8.9c0.5,7.8,0.4,15.6,0.1,23.4
		c-0.1,2.7-0.3,5.7-3.2,7.4c-0.4,0.7-0.8,1.4-1.2,2.1c-0.1,1.5-0.4,2.9-2.3,3c-15.3,6.3-27.4-0.2-39-9.6c-3.4-2.8-4.2-5.5-2.1-9.3
		c0.8-1.4,1.1-3.1,1.7-4.6c5.9-2.3,10-9.5,9.2-15.6c-0.3-2-1.6-2.3-3.1-2.4c-2.3-0.1-4.6,0.1-6.9-0.1c-4.7-1.2-3.9-4.9-3.8-8.2
		c2.2-2.7-0.2-6.2,1.6-9c-0.5-9,4.3-14.3,12-17.6c3.5-3,7.5-3.8,11.9-2.9c3.3,0.3,6.9-0.7,9.8,1.9c4.6,2.2,7.5,5.8,8.6,10.8
		C698.9,498.7,698.7,504.1,699,509.4z"/>
	<path class="st33" d="M963.9,584.9c0.2,2,0.1,2.5,0.1,3.7c0.4,3.9-2.3,3.4-4.9,3.3c-1.3,0-2.6-0.1-4,0c-3.8,0.4-6.2,0.1-6.3-3.8
		c-0.1-7.3-0.5-14.7-1.8-21.9c-2.9-26.2,2.3-53.3,3.2-79.4c0-0.6,0.4-1.2,0.6-1.9c0.2,2.7,2.5,3.4,4.4,4.2
		c9.6,3.8,19.5,4.9,29.7,3.4c1.1-0.2,2.4-0.9,3.3,0.1c1,1.1-0.1,2.2-0.6,3.1c-3.1,5.9-6.1,11.8-9.5,17.5c-1.5,2.6-2.3,5.1-2.2,7.9
		c-3.3,8.8-6.7,17.6-7.5,27.1c-0.4,5.6-1.1,11.2-1.4,16.8c-1.1,4.1-0.2,8.4-1.5,12.5C965.3,580,966,582.7,963.9,584.9z"/>
	<path class="st5" d="M680.5,467.8c-1.2,3.3-2.5,6.6-3.7,9.9c-2.4,2.3-4.6,1.1-6.6-0.5c-2.3-1.9-4.6-3.9-3.7-7.5
		c0.5-1.9,1.4-3.7,0.9-5.8c-0.4-1.6-1.1-3-2.9-2.8c-1.7,0.2-1.7,1.7-1.7,3.1c0,1.4,1.4,3.1-0.6,3.9c-1.6,0.7-2.8-0.6-3.9-1.6
		c-2.4-2.1-5.7-2.7-8.2-4.5c-3.6-1.4-6.2-3.9-8.1-7.1c-1.7-3.3-2.6-6.6-0.1-10c4-3.7,8.5-0.6,12.7-0.9c4.2,0.9,8.5,0.1,12.8,0.5
		c1.5,0.1,3.3-0.9,4.5,0.9c2.9,1.3,5.5,3.2,7.6,5.7C683.2,456.5,683,462.1,680.5,467.8z"/>
	<path class="st34" d="M945.1,436.9c3.8,1.1,6.4,3.8,8.8,6.6c3.4,4-1.8,6.8-1.7,10.3c-0.3-0.5-0.4-1.5-1.3-1c-0.7,0.4-1,1.3-1.5,1.9
		c-6.7,8.1-9,8.1-15.3-0.2c-3.9-5.1-7.8-10.3-11.5-15.6c-2-2.9-4.3-5.3-7.2-7.4c-3.3-2.3-7-5-2.2-9.4c1.5-1.4-0.7-2.6-0.5-4.2
		c4.4,0.1,6.8,3.1,8,6c1.7,4.3,4.9,6.5,8.2,8.9c2.4,1.8,5.1,3.2,7.2,5.3C939.9,441.8,942.7,441.3,945.1,436.9z"/>
	<path class="st35" d="M650.1,462.1c4.8,0,8.2,2.9,11.7,5.6c0.3-0.5,0.5-0.6,0.4-0.7c-0.9-2.4-2.9-4.8,0.3-7.1
		c1.6-1.1,3.2-1,4.6,0.3c2.5,2.2,2.5,4.9,1.5,7.8c-2.3,6.1,1.2,10.4,8.1,9.8c-0.2,1.1-0.5,2.2,0.4,3.2c0,0.2,0,0.4-0.1,0.5
		c-4,0.9-7.9,1.9-11.9,2.8c-0.2-1.4,0-2.8-2.1-3.4c-7.4-2-11.2-6.7-12.1-14.6C650.9,464.9,650.9,463.4,650.1,462.1z"/>
	<path class="st36" d="M652.2,511.3c2,1.9-1.2,6.7,3.9,6.8c1.3,1.4,1.3,3,1,4.7c-0.4,2.3-1.7,3.5-3.8,2.2c-8-4.9-16.3-9.4-23.6-15.5
		c-1.2-1-2.5-2.3-1.6-4.3c2.3-2.2,3.3-4.8,1.9-7.9c0.8-1.8,2.4-1.2,3.8-1.4c6.4,3.9,11.4,9.4,17.1,14.1
		C651.5,510.3,652.2,510.4,652.2,511.3z"/>
	<path class="st2" d="M699,509.4c-2-4.9-2-10.4-3.5-15.4c1,0.2,1.4,1.1,2.4,1.8c0-1.6,0-3.2,0-4.7c0-37.6,0.1-75.1-0.1-112.7
		c0-8.1,1.5-16.2,1.2-24.3c0-0.7,0.6-1.4,1-2.1c-0.1,50.2-0.2,100.4-0.3,150.6C699.7,504.8,699.3,507.1,699,509.4z"/>
	<path class="st2" d="M680.5,467.8c1.5-5.7,1.8-11.3-1-16.8C683.8,455.4,684.2,462.5,680.5,467.8z"/>
	<path class="st2" d="M671.9,445.4c-3.9-1.2-7.9-0.2-11.9-0.3c-1.8,0-3.7-0.1-5.3-1.1c4.5,0,8.9-0.1,13.4-0.1
		C669.5,444,671.2,443.5,671.9,445.4z"/>
	<path class="st2" d="M642,445c-1.7,3.4-0.6,6.7,0.1,10C639.4,451.7,638.5,448.3,642,445z"/>
	<path class="st2" d="M677.1,481.5c0-0.2,0-0.4,0.1-0.5c3.3,0.5,7.2-1.4,9.8,2.3C683.8,481.8,680.4,482,677.1,481.5z"/>
	<path class="st2" d="M652.2,511.3c-0.4-0.4-0.9-0.9-1.3-1.3c2.7-2.2-0.4-6,2.3-8.1C653,505,653.8,508.3,652.2,511.3z"/>
	<path class="st2" d="M715.9,293.5c0.7-1.6,1-3.6,3.4-4.4C719.1,291.6,718,292.9,715.9,293.5z"/>
	<path class="st28" d="M707,348c4.8-27.3,17.5-50,39.1-67.6c1.2-0.9,2.5-1.7,3.7-2.5c2.4-0.9,2.9,0.7,3.3,2.4c0.4,1.6,0.2,3.3,0.2,5
		c0,53.5,0,107,0,160.5c0,3,0.9,6.5-2.9,8.3c-0.8,0.3-1.7,0.4-2.5-0.1c-1.8-2.1-3.2-4.6-6.1-5.7c-5.1-2-10.1-0.6-13.2,3.8
		c-3.3,4.8-3,10.1,1,14.1c3.9,3.9,8.9,4.5,13.6,1.6c1.3-0.8,2.3-1.9,3.4-2.9c1.1-0.9,2.3-1.8,3.9-1.3c2.5,1.8,2.7,4.5,2.7,7.2
		c0.1,30.4,0,60.9,0.1,91.3c0,4-1.4,5.5-5.6,5.4c-12.6-0.3-25.3-0.1-37.9-0.1c-1.3,0-2.7,0.3-3.9-0.5c0-67.8,0-135.7,0-203.5
		C706,358.3,706.7,353.2,707,348z"/>
	<path class="st37" d="M895,342.9c2.7,8.5,3.1,17.3,3.1,26.1c0,51,0,101.9,0,152.9c0,15,0,30,0,45c-1.3,1.6-3,1.1-4.6,1.1
		c-46.5,0-93,0-139.4-0.1c-0.3-0.7-0.1-1.2,0.5-1.6c2.2-1.2,4.5-0.9,6.8-0.9c10.6,0,21.3,0,31.9,0c5.6,0,6.1-0.5,6.1-5.9
		c0.1-53.1,0-106.1,0.1-159.2c0-4.3-1.6-6.1-5.8-7c-9.7-2.2-17.9-7-23.6-15.5c-1.5-2.3-2.8-4.6-2.1-7.4c2.2-3.3,3.6-0.5,4.8,0.8
		c2.9,3.5,6.4,6.3,10.3,8.5c15.8,8.9,33.7,5.9,46.2-7.4c1.4-1.4,2.3-5.2,5.7-2.3c1.4,2.7,0.1,4.8-1.3,6.9
		c-5.5,8.2-13.1,13.6-22.7,16.1c-6.4,1.7-6.5,1.7-6.5,8.3c0,45.3,0,90.6,0,135.9c0,6.8,0,13.7,0,20.5c0,7.6,0.1,7.7,7.9,7.7
		c9,0,18,0,27,0c7.7,0,7.9-0.2,7.9-7.7c0-30.8,0-61.6,0-92.5c0-2.8-0.5-5.7,1.3-8.2c1.2-0.8,2.4-0.8,3.6,0.1
		c1.7,2.6,1.3,5.5,1.3,8.3c0,30.2,0,60.3,0,90.5c0,1.7,0.1,3.3,0,5c-0.1,3.1,1.3,4.6,4.5,4.6c10.8,0,21.7,0,32.5,0
		c3.4,0,4.8-1.6,4.7-4.9c0-1.8,0-3.7,0-5.5c0-60,0-120,0-179.9c0-8.5-0.1-17-1.4-25.4C893.6,347.2,893.1,344.8,895,342.9z"/>
	<path class="st2" d="M623.8,554.1c4.6-3,4.1-8.7,6.8-12.8c1.6-2.5,2.5-5.4,4.1-9c8.9,13,17.3,25.4,29.3,34.7
		c0.1,0.6,0.7,1.6-0.2,1.5c-13.4-1.5-26.8-0.2-40.2-0.6c-1.3,0-2.7,0.2-3.7-1c-1.4-2.5,0-5,0-7.5
		C620.6,557.2,621.5,555.2,623.8,554.1z"/>
	<path class="st38" d="M754,566.9c0,0.3,0,0.7,0,1c-14.6,0-29.2,0.1-43.9,0c-1.4,0-3,0.5-4.1-1c13.8,0,27.6-0.1,41.4,0.1
		c3.4,0,4.6-0.9,4.6-4.5c-0.1-30.6,0-61.2-0.1-91.8c0-2.5,0.3-5.4-2.8-6.7c0-2.6,2.1-2.1,3.6-2.3c2.5-0.3,5-0.3,7.4-0.1
		c3.9,0.2,6.7-1.1,8.6-4.5c0.6-0.3,1.1-0.3,1.6,0.2c3.1,6.5,1.2,9.9-5.9,10.2c-8.4,0.3-8.8-0.5-8.8,9.5c0,27.3,0,54.5,0,81.8
		C755.6,561.5,756.1,564.5,754,566.9z"/>
	<path class="st39" d="M699.2,555.8c3.3-10.7,1.9-21.5,1.4-32.4c-0.1-2.5-0.4-4.9-0.7-7.4c0.4-1.2-0.4-2.7,1.5-3.8
		c0.9,4.4,2.6,8.4,2.6,12.8c0,9.6,0,19.2,0,28.7c0,3.6-1.3,6.6-4,9.1C699.5,560.6,700.7,558,699.2,555.8z"/>
	<path class="st40" d="M620.9,558.9c0.6,2.8-0.2,5.4-0.9,8c-2.8,5.1-3.7,5.2-10,1c-3.6-3-0.5-6.7-1-10c1.1-1.5,2.5-1.1,4-0.9
		C615.7,557.2,618.1,558.5,620.9,558.9z"/>
	<path class="st41" d="M695.7,560.8c0.8-1,1.6-2,2.3-3c1.8,2.5,1.6,5.7,0.7,7.9c-1.6,3.8-5,2.6-7.9,1
		C692.4,564.8,694.9,563.5,695.7,560.8z"/>
	<path class="st42" d="M1293.9,507.9c0.1-2.8,2.4-3.3,4.5-4c4.3-1.4,7.4-3.3,8.2-8.7c0.7-4.3,1.4-9.1,4.4-12.8
		c0.4,5.8-2.4,11.1-2.9,17.4c16.3-6.8,30.8-15.6,44.2-26.2c-1.2,3.6-4.3,5.4-7,7.5c-2.9,2.2-5.8,4.4-8.8,6.5c-3,2-6.1,3.7-9.6,5.8
		c4.1,2.7,8.9,1.9,13.1,5.1c-5,0.3-8.8-1.3-12.5-2.4c-2.7-0.8-5-0.6-7.5,0.7C1311.5,501.1,1303.1,505.5,1293.9,507.9
		C1293.9,507.9,1293.9,507.9,1293.9,507.9z"/>
	<path class="st43" d="M629,505.2c-1,3.5,2.4,4.3,4.1,5.5c6.4,4.6,13.3,8.6,20,12.9c2,1.3,3,1.1,2.9-1.5c0-1.3,0-2.6,0.1-4
		c12.8-0.5,12-2,9.3,11.3c-1.5,7.5-3.7,9.1-9.1,7.9c-8.5-6.4-16.7-13.2-24.3-20.7c-3-3-7-4.3-10.1-7c1-1.5,3.9,1.6,4.1-1.8
		c-0.9-1.3-1.3-2.8,0.1-3.9C627.4,502.9,628.4,503.7,629,505.2z"/>
	<path class="st44" d="M620.9,558.9c-3.2,1.5-5.7,0.1-8-2c-0.5-2.9,2.7-4.1,3.1-6.7c2.6,1.3,5.2,2.5,7.9,3.8
		C622.8,555.7,621.9,557.3,620.9,558.9z"/>
	<path class="st0" d="M963.9,584.9c0.1-2.7,0.1-5.4,0.2-8c6.6-2.4,13.2-2.4,19.8,0c2.2,5.2,1.4,11.1,3.9,16.2c1.5,2,1,4.4,1.1,6.7
		c-6,5.1-13.4,6.3-20.9,7.1c-4.4,0.4-2.9-4-4.3-6.1C961.3,595.4,964.9,590.2,963.9,584.9z"/>
	<path class="st45" d="M965.8,565c0.2-14.2,2.3-27.9,7.3-41.3c0.6-1.5,0.9-2.9,2.8-2.7c-1.2,15,2.1,29.5,5.3,44
		c-0.4,4.2-1.2,4.8-8.8,4.4C969.6,569.3,965.1,570.7,965.8,565z"/>
	<path class="st3" d="M965.8,565c0.3,1.1,0.1,2.7,1.5,2.7c4.1,0.2,8.2,0.2,12.3,0c1.5-0.1,1.3-1.7,1.6-2.7c1.7,3.8,1.9,7.8,2.7,11.8
		c-6.6,0-13.2,0-19.8,0C964.7,572.9,965.2,568.9,965.8,565z"/>
	<path class="st46" d="M283.9,240.1c-0.6,4.3,2.4,8.5,0.2,12.7c-2.7-0.9-5.4-1.8-8.2-2.8c-0.2-0.8-0.9-1.6-0.1-2.3
		c4.4-3.5,1.8-4.5-1.7-5.7c-7.5-2.5-14.9-5.3-22.3-8c0.1-0.4,0.2-0.8,0.3-1.2c8.4,1.6,16.8,3.1,25.1,4.8
		C279.5,238.1,282.5,237.2,283.9,240.1z"/>
	<path class="st47" d="M629,505.2c-4-2.3-2.6,1.2-3,2.7c-5.9-2.4-8.9-8-13.3-12.1c-0.9-0.8-0.2-1.7,0.4-2.6
		c4.6-6.6,6.5-6.7,12.1-0.9c1.6,1.7,3.2,3.3,4.8,5C634.4,500.6,632.1,502.9,629,505.2z"/>
	<path class="st20" d="M391,443c-1.5-0.3-4.1,0.7-4.1-1.4c-0.1-2.3,2.5-1.6,3.9-1.5c1.4,0,3.9-0.9,3.9,1.6
		C394.7,443.6,392.4,442.7,391,443z"/>
	<path class="st48" d="M432.8,436c1.1,0.2,3.2-0.2,2.7,1.3c-1,2.9-4.3,1.3-6.4,2.4c-0.8,0.4-2-0.3-1.6-1.1
		C428.5,436.3,430.7,436.2,432.8,436z"/>
	<path class="st49" d="M415.9,441.5c-1.3,0.2-2.7-0.5-2.3-1.3c1.2-2.4,4.1-1.3,6.1-2.1c0.9-0.4,2.5,0.2,2.1,1.3
		C420.8,442.4,417.5,440.1,415.9,441.5z"/>
	<path class="st50" d="M408.4,440.8c-2.6,1.7-5.2,1.3-7.8,0.3C403.2,439.5,405.8,439.7,408.4,440.8z"/>
	<path class="st28" d="M754,566.9c0-31.6,0.1-63.2-0.1-94.8c0-4.9,1.5-6.8,6.3-6.1c0.8,0.1,1.7,0,2.5,0c8.7,0,9.4-0.9,6.5-9.1
		c-3.1-1.8-6.4-2.5-10-2.5c-5.6,0-6.2-0.7-6.2-6.5c0-45.7,0-91.4,0-137.1c0-10.1,0.1-20.3-0.1-30.4c0-2.8,0.7-4.9,3-6.4
		c27-16.4,55.2-18.1,83.5-4.3c30.6,14.9,48.3,40.4,55.6,73.3c-0.2,7.6,2,15.1,2,22.7c-0.1,65.1-0.1,130.3,0,195.4
		c0,4.9-1.4,6.2-6.2,6c-11.5-0.3-23-0.2-34.5,0c-3.5,0.1-4.5-1.1-4.5-4.6c0.1-35.1,0.1-70.3,0.1-105.4c4.4-1.8,8.8-0.3,13.1,0
		c3.5,0.2,6.9,0.4,10.4,0.8c3,0.3,4.6-0.7,5.2-3.8c1.2-6.6,1.7-13.1-1.8-19.3c-2-2.2-5.8-0.9-7.6-3.8c-4.5-7.2-9.9-13.7-15.6-19.9
		c-3.7-4.1-5-4-8.8,0.3c-4,4.5-7.6,9.2-11.5,13.7c-1,1.1-1.8,2.4-3.3,2.9c-6.7,1.1-6.8,1.1-7.5,8c-0.4,4.1-0.9,8.3,0.8,12.2
		c1.5,4,4.5,5.7,8.7,6c3.3,0.3,6.6,0.2,9.9,0.8c1.8,0.3,3.6,0.5,4.9,2.1c0,35,0,69.9,0.1,104.9c0,3.8-0.9,5.2-5,5.1
		c-12-0.3-24-0.3-36,0c-4.3,0.1-5.2-1.5-5.2-5.5c0.1-54.6,0.1-109.2,0-163.9c0-3.8,0.8-5.4,5.1-5.9c11.7-1.4,19.9-8.4,26.1-18.1
		c1.1-1.7,0-3.2-0.1-4.8c-0.7-3.4,1.5-6,2.5-8.9c6.2-19.1-1.5-37.7-19.9-46.2c-23.3-10.7-46.9,5.4-51.2,26.5
		c-1.7,8.2-0.2,15.8,2.8,23.3c0.6,1.6,2.1,3.2,0.9,5.1c-0.9,7.5,4.5,11.7,9.2,15.5c5.1,4.2,11,7.4,18,7.8c3.2,0.2,4.7,1.8,4.7,5.5
		c-0.1,54.8-0.1,109.6,0,164.4c0,4-1.2,5.1-5.1,5C782,566.8,768,566.9,754,566.9z"/>
	<path class="st51" d="M756,273.9c-1.8,2.2-2,4.7-2,7.5c0.1,55,0,110.1,0,165.1c0,6.5,0,6.5,6.4,6.5c3.4,0,7.2-0.6,8.7,3.8
		c0,0-0.3,0.3-0.3,0.3c-5-1.7-10.4-0.8-15.5-1.7c-1.6-0.3-3.4,0-4.4-1.7c2.4-0.7,3.1-2.2,3.1-4.8c-0.1-55.5-0.1-111.1-0.1-166.6
		c0-1.7,0.6-3.9-2.1-4.3C751.6,276.1,753.5,274.6,756,273.9z"/>
	<path class="st52" d="M749,453.7c3.9,0.8,7.8,1,11.8,0.7c3.1-0.3,6,0,8.1,2.7c0.6,4.5-2.1,5.6-5.9,5.8c-4.6,0.3-9.4-1.1-13.8,1.1
		c-0.7,0.7-1.3,1.4-2,2.1c-0.9,0.3-1.5-0.1-2.2-0.6c-2.5-1.7-5.4-0.8-8.1-1.4c-2.8-0.6-4.9-2.1-5.4-5c-0.5-2.7,1.3-4.2,3.6-5.1
		c4.3-0.6,8.7-0.2,13-1C748.3,453.2,748.6,453.4,749,453.7z"/>
	<path class="st53" d="M748,453c-3.9,3.9-8.7,1.3-13.1,2c1.5-4,5.4-0.9,7.6-2.7c-3.4-2.6-7.4-2.5-10.4,0.2c-2.8,2.5-3.6,6.9-1.9,10
		c2.1,3.8,6.2,5.5,10.1,4.3c1.9-0.6,3.4-2.2,5.6-2c0.4,0.4,0.9,0.9,1.3,1.3c-5.4,6.1-12.7,6.6-18.1,1.3c-5.3-5.2-4.9-13.5,0.9-18.4
		c5.2-4.4,13.3-3.4,17.6,2.2C747.8,451.6,747.8,452.3,748,453z"/>
	<path class="st53" d="M746.2,427.1c0,4.8-4.3,8.9-9,8.7c-4.4-0.2-8.4-4.4-8.4-8.9c0.1-4.6,4.5-8.9,9.1-8.8
		C742.3,418.2,746.3,422.6,746.2,427.1z"/>
	<path class="st54" d="M769.1,368.8c-7.2-13.4-8.4-27-0.6-40.5c10.5-18.2,33.2-24.4,51.6-14.4c18.2,9.9,25.1,32.7,15.7,51.4
		c-0.6,1.2-1.2,2.4-1.8,3.6c-5.2,6.1-10.9,11.6-18.6,14.4c-15.8,5.9-33,1.3-43.6-11.7C770.9,370.7,770,369.8,769.1,368.8z"/>
	<path class="st55" d="M849,457c-6.5-0.7-13-1.6-19.6-1.9c-4.3-0.3-2.8-4.8-5.3-6.2c5.2-2.5,10.5-0.3,15.6,0.1
		c10.6,0.8,21.2,2.1,31.8,2.8c4.7,0.3,5.6-0.4,5.9-5.1c0.4-4.6,0.2-9.3,2.4-13.6c4.6,7.6,3.4,15.8,1.9,23.9c-0.3,1.8-1.8,3-4.1,2.8
		c-8.5-1-17.1-1.8-25.6-2.7C851,457,850,457,849,457z"/>
	<path class="st56" d="M879.8,433c-0.3,5.3-0.6,10.6-1,15.9c-0.2,3.3-1.5,5.1-5.3,4.7c-16.5-1.7-32.9-3.2-49.4-4.8
		c-2.7-6.9-1.1-13.8,0.6-20.4c0.9-3.5,5.4-0.7,8.1-1.7c8.6,0.1,17.1,2.1,25.7,1.9c3.4,0.8,6.9,1,10.3,0.9c1,0,2.1,0,3.1,0.4
		C873.7,433.4,877.8,430.5,879.8,433z"/>
	<path class="st57" d="M859.1,429.9c-8.9,0.1-17.8-0.1-26.3-3.1c4.7-6.5,10-12.4,15.2-18.4c2.3-2.7,4.6-2.5,6.7-0.2
		c6.3,6.8,12.4,13.8,17.2,21.8c-0.7,0.3-1.5,0.5-2.2,0.8c-4.5-3.6-7.4-8.6-11-12.9c-1.8-2.2-3.7-2.4-6.5-2.8
		c-7.1-1.1-8.8,4.4-12.2,7.9c-2.3,2.5-0.8,3.6,1.8,3.6c4.5,0,9,0.5,13.4,1.2C856.7,428,858.8,427.4,859.1,429.9z"/>
	<path class="st58" d="M745.8,464.7c-3.9,3.4-8.1,5.4-13.1,2.4c-3.7-2.3-5.5-5.7-4.8-10.2c0.7-4,3.1-6.7,6.9-7.8
		c4.3-1.2,8.2-0.4,11.1,4c-3.6,2.1-7.7-0.5-11,1.7c-2,1-3.2,2.5-2.3,4.8c0.9,2.1,2.7,3,5,3.4C740.4,463.5,743.8,460.8,745.8,464.7z"
		/>
	<path class="st59" d="M737.6,420.9c3.5-0.1,6.5,2.8,6.3,6.2c-0.2,3.7-2.4,5.9-6,6c-3.8,0.1-6.3-2-6.7-6
		C731,423.8,734,420.9,737.6,420.9z"/>
	<path class="st0" d="M766.7,347.6c0-19.4,15.4-35,34.6-35.2c19.3-0.2,35.3,15.7,35.4,35.2c0.1,19.2-16.1,35.2-35.4,35.2
		C782.2,382.7,766.7,367,766.7,347.6z"/>
	<path class="st60" d="M859.1,429.9c-5.8-1.7-11.8-1.6-17.7-2.1c-1.8-0.1-4.2,0.1-5-1.5c-0.8-1.6,1.5-2.7,2.5-3.9
		c1.9-2.3,3.8-4.6,5.8-6.9c1.5-1.7,2.7-4.8,5.5-1.2c0.2,0.3,1.5,0.4,1.8,0c4.1-3.8,5.6,0.1,7.4,2.5c3.4,4.6,7.8,8.5,10.3,13.8
		C866.2,430.6,862.5,431.7,859.1,429.9z"/>
	<path class="st61" d="M737.7,429.4c-1.4-1.4-2.3-2.8-1-4.6c0.4-0.6,1.2-0.6,1.7,0C739.8,426.5,739.2,428,737.7,429.4z"/>
	<path class="st62" d="M775.8,347.3c0.1-14.7,11.2-25.6,26.1-25.5c14.2,0,26.2,12.1,26,26.1c-0.3,14-12.6,26.1-26.5,25.9
		C787.2,373.6,775.7,361.8,775.8,347.3z"/>
	<path class="st63" d="M801.5,371.1c-13.4,0-23.6-10.3-23.5-23.7c0-13.2,10.5-23.5,24-23.4c13,0.1,23.2,10.4,23.2,23.5
		C825.1,361.1,815.1,371.1,801.5,371.1z"/>
	<path class="st64" d="M699,499.9c0-44.8-0.4-89.6,0.1-134.4c0.4-33.3,12.5-62,36.9-85.1c37.2-35.2,94.1-35,131,0.4
		c21.7,20.8,33.7,46.2,35.9,76.3c0.4,5.7,0.6,11.3,0.6,16.9c0,64.3,0,128.6,0,192.9c-1.8,1.4-3.9,0.9-5.9,1c0-64.2,0-128.4,0-192.7
		c0-10.3-0.5-20.6-2.7-30.7c-5.9-27.4-19.4-50-42.2-66.7c-1.4-0.9-2.8-1.8-4.2-2.8c-27.4-19-66.6-19-94.9,0.1
		c-1.3,0.2-2,1.3-2.8,2.1c-1.1,0.7-2.3,1.3-3.4,2.1c-28.2,22.4-42.1,52.3-42.5,87.7c-0.7,66.9-0.2,133.9-0.2,200.9
		c-1.9,0-3.9,0-5.8,0"/>
</g>
<path class="st2" d="M194.3,267.4c7.9,0.6,17.3,0.3,26.8,0.5c7.3,0.2,14.8-0.2,22.2,0.3c3.1,0.2,4.5,0.8,4.4,4.2
	c-0.2,6.3-0.2,12.7,0,19c0.1,3.2-1.3,3.8-4.1,3.9c-24.3,1.2-48.7,0.8-73.1,1c-3.6,0-5.1-0.8-4.9-4.7c0.3-6.6,0.3-13.3,0-20
	c-0.1-3.7,1.3-4.5,4.7-4.4C177.7,267.5,185.2,267.4,194.3,267.4z"/>
<path class="st2" d="M633.2,124.4c11.7,0,23.3,0.2,35-0.1c5.2-0.2,6.7,1.7,6.4,6.6c-0.4,5.5-0.2,11,0,16.5c0.1,3.8-1.8,5-5.1,5
	c-24.2,0-48.5-0.1-72.7,0.1c-3.3,0-4.3-1.1-4.2-4.3c0.2-6.5,0.2-13,0-19.5c-0.1-3.3,1-4.3,4.3-4.3
	C608.9,124.5,621.1,124.4,633.2,124.4z"/>
<path class="st2" d="M1027,123.4c-12,0-24-0.1-35.9,0.1c-3.4,0-4.8-0.8-4.6-4.4c0.3-6.3,0.2-12.6,0-19c-0.1-3.5,1.3-4.7,4.7-4.7
	c19,0.1,37.9-0.3,56.9,0.2c5.6,0.1,11.2,0.7,16.8,0.8c2.1,0,3.9,0.7,3.3,3.2c-1.5,6.4-0.6,12.9-0.6,19.4c0,3.6-1.3,4.5-4.6,4.5
	C1051,123.3,1039,123.4,1027,123.4z"/>
<path class="st2" d="M999.9,157.4c-11.3,0-22.7-0.1-34,0.1c-3.5,0.1-4.7-1.1-4.5-4.6c0.2-6.2,0.2-12.3,0-18.5
	c-0.1-3.6,1.1-5.1,4.9-5.1c22.5,0.1,45,0.1,67.5,0c3.4,0,4.9,1.1,4.8,4.6c-0.2,6.5-0.2,13,0,19.5c0.1,3.2-1.2,4-4.1,3.9
	C1022.9,157.3,1011.4,157.4,999.9,157.4z"/>
<path class="st2" d="M1380,311.4c9.2,0,18.3,0.1,27.5-0.1c3.7-0.1,5.1,1.2,5,4.9c-0.2,6.2-0.2,12.3,0,18.5c0.1,3.5-1.4,4.7-4.8,4.7
	c-18.7-0.1-37.3-0.1-56,0c-3.2,0-4.5-0.8-4.4-4.2c0.2-6.5,0.2-13,0-19.5c-0.1-3.7,1.3-4.5,4.7-4.4
	C1361.4,311.5,1370.7,311.4,1380,311.4z"/>
<path class="st2" d="M1405.6,371.3c-8.3,0-16.6-0.1-24.9,0.1c-3.3,0.1-4.4-1-4.3-4.3c0.2-6.3,0.2-12.6,0-18.9
	c-0.1-3.8,1.5-5,5.1-4.8c9.6,0.5,19.2,0.1,28.8,0.7c6.6,0.4,13.4,0.7,20.2,0.3c3-0.2,4.1,0.9,4,4c-0.2,6.3-0.2,12.6,0,18.9
	c0.1,3.5-1.4,4.2-4.4,4.1C1421.9,371.2,1413.8,371.3,1405.6,371.3z"/>
<path class="st2" d="M990,90.4c-8.1,0-16.3-0.1-24.4,0c-2.9,0-4.2-0.8-4.1-3.9c0.2-6.8,0.2-13.6,0-20.4c-0.1-2.9,1.1-3.7,3.8-3.7
	c16.5,0.1,32.9,0.1,49.4,0c2.7,0,3.9,0.8,3.9,3.7c-0.1,6.8-0.2,13.6,0,20.4c0.1,3.1-1.2,4-4.1,3.9C1006.3,90.3,998.1,90.4,990,90.4z
	"/>
<path class="st2" d="M186,302.4c5.5,0,11,0.1,16.5,0c2.9-0.1,4.2,0.7,4.1,3.9c-0.2,6.6-0.1,13.3,0,20c0,3-1.2,4.2-4.2,4.2
	c-11.1-0.1-22.3-0.1-33.4,0c-2.7,0-3.5-1.1-3.4-3.6c0.1-7,0.1-14,0-21c0-2.6,0.9-3.6,3.5-3.5C174.7,302.4,180.4,302.4,186,302.4z"/>
<text transform="matrix(0.9976 6.907724e-02 -6.907724e-02 0.9976 833.5442 443.9116)" class="st65 st66 st67">CLOSE</text>
</svg>
